<?xml version="1.0" encoding="utf-8"?>
<!-- Generator: Adobe Illustrator 24.0.3, SVG Export Plug-In . SVG Version: 6.00 Build 0)  -->
<svg version="1.1" id="Layer_1" xmlns="http://www.w3.org/2000/svg" xmlns:xlink="http://www.w3.org/1999/xlink" x="0px" y="0px"
	 viewBox="0 0 16 16" style="enable-background:new 0 0 16 16;" xml:space="preserve">
<style type="text/css">
	.st0{fill:#FFFFFF;}
	.st1{fill:#E5E5E4;}
	.st2{fill:#A4C1E5;}
	.st3{opacity:0.25;}
	.st4{fill:#F5C652;}
	.st5{fill:#0A1B2D;}
	.st6{fill:#6B6B6A;}
	.st7{fill:#48A1D9;}
	.st8{fill:#1E5087;}
	.st9{fill:#4D4E4E;}
	.st10{fill:#14355A;}
	.st11{opacity:0.43;}
	.st12{fill:none;stroke:#F5C652;stroke-width:4.9749;stroke-linecap:round;stroke-miterlimit:10;}
	.st13{fill:#F1F1F1;}
	.st14{fill:#A6A8AB;}
</style>
<circle class="st0" cx="8" cy="8" r="8"/>
<path class="st1" d="M8,16c3.4,0,6.2-2.1,7.4-5H0.6C1.8,13.9,4.6,16,8,16z"/>
<g>
	<g>
		<path class="st2" d="M4.8,11.6c0,0,0.2,1,1.5,1s1.8,1,3.6,1s2-1.4,3.5-1.4s1.7-0.5,1.7-0.5L4.8,11.6L4.8,11.6z"/>
	</g>
</g>
<g class="st3">
	<g>
		<g>
			<path class="st4" d="M10.8,14.9c-0.1,0-0.1,0-0.1-0.1l-0.8-2.5c0-0.1,0-0.2,0.1-0.2c0.1,0,0.2,0,0.2,0.1l0.8,2.5
				C11,14.8,11,14.9,10.8,14.9C10.9,14.9,10.9,14.9,10.8,14.9z"/>
		</g>
	</g>
	<g>
		<g>
			<rect x="8.6" y="11.8" class="st5" width="2.8" height="0.4"/>
		</g>
	</g>
	<g>
		<g>
			<polygon class="st6" points="11.2,11.7 8.4,11.7 8.5,11.9 11.3,11.9 			"/>
		</g>
	</g>
</g>
<g>
	<g>
		<path class="st2" d="M11.5,10.1"/>
	</g>
</g>
<g>
	<g>
		<g>
			<path class="st7" d="M14.3,11.6h-1.8c-0.1,0-0.3-0.1-0.3-0.2l-0.2-3h2.6l-0.2,3C14.6,11.4,14.5,11.6,14.3,11.6z"/>
		</g>
	</g>
	<g>
		<g>
			<path class="st8" d="M14.7,8.4h-2.6c0,0,0,0,0,0c0,0,0,0,0,0L14.7,8.4C14.8,8.3,14.8,8.3,14.7,8.4C14.8,8.4,14.8,8.4,14.7,8.4z"
				/>
		</g>
	</g>
	<g>
		<g>
			<path class="st9" d="M13.3,8.6C13.3,8.6,13.3,8.6,13.3,8.6C13.3,8.6,13.3,8.6,13.3,8.6C13.3,8.6,13.3,8.6,13.3,8.6
				C13.3,8.6,13.3,8.6,13.3,8.6C13.3,8.6,13.3,8.6,13.3,8.6C13.3,8.5,13.3,8.5,13.3,8.6C13.3,8.5,13.3,8.6,13.3,8.6
				C13.3,8.6,13.3,8.6,13.3,8.6c0,0.1,0.1,0.1,0.1,0.2c0.1,0.2,0.2,0.4,0.4,0.5c0.1,0.1,0.2,0.1,0.3,0.2c0.1,0,0.2,0.1,0.3,0.1
				c0.1,0,0.2,0,0.2,0s0.1,0,0.1,0c0,0,0,0,0,0c0,0,0,0,0,0l0,0h0c0,0,0,0-0.1,0s-0.1,0-0.2,0s-0.2,0-0.3-0.1
				c-0.1,0-0.2-0.1-0.3-0.2c-0.2-0.1-0.4-0.4-0.4-0.5C13.2,8.7,13.2,8.7,13.3,8.6C13.2,8.6,13.2,8.5,13.3,8.6
				C13.2,8.5,13.2,8.5,13.3,8.6C13.2,8.5,13.2,8.5,13.3,8.6C13.2,8.5,13.2,8.5,13.3,8.6C13.3,8.5,13.3,8.5,13.3,8.6
				C13.3,8.5,13.3,8.5,13.3,8.6C13.3,8.5,13.3,8.5,13.3,8.6L13.3,8.6C13.3,8.5,13.3,8.5,13.3,8.6C13.3,8.5,13.3,8.6,13.3,8.6z"/>
		</g>
	</g>
	<g>
		<g>
			<path class="st2" d="M12,9.8c0,0,0.1,0.3,0.3,0.3s0,0.6,0.4,0.6c0,0,0-2.1,0-2.2c0-0.1,0.1-0.1,0.1-0.1c0,0,0.1,0,0,0
				c0,0-0.1-0.1-0.2-0.1c-0.1,0-0.2,0.1-0.3,0.2L12,9.8z"/>
		</g>
	</g>
</g>
<g>
	<g>
		<g>
			<rect x="12.5" y="11.6" class="st10" width="1.8" height="0"/>
		</g>
	</g>
	<g class="st11">
		<g>
			<path class="st10" d="M14.3,11.6h-1.8c-0.1,0-0.3,0.1-0.3,0.2l0,0.6c0.3-0.2,0.6-0.3,1.1-0.3c0.6,0,1-0.1,1.3-0.2l0-0.1
				C14.6,11.7,14.5,11.6,14.3,11.6z"/>
		</g>
	</g>
</g>
<g>
	<g>
		<path class="st12" d="M10.2,10.9"/>
	</g>
</g>
<g>
	<g>
		<path class="st4" d="M10.1,11.2C10.1,11.2,10,11.2,10.1,11.2c-0.1,0-0.2-0.1-0.1-0.2L13,1c0-0.1,0.1-0.1,0.2-0.1
			c0.1,0,0.1,0.1,0.1,0.2l-3.1,10.1C10.2,11.2,10.1,11.2,10.1,11.2z"/>
	</g>
</g>
<g>
	<g>
		<rect x="8.6" y="11" class="st7" width="2.8" height="0.4"/>
	</g>
</g>
<g>
	<g>
		<polygon class="st6" points="11.2,11.7 8.4,11.7 8.5,11.4 11.3,11.4 		"/>
	</g>
</g>
<g>
	<g>
		<path class="st0" d="M8.8,12.6c0-0.1-0.1-0.1-0.1-0.1s-0.1,0.1-0.1,0.1"/>
	</g>
</g>
<g>
	<g>
		<path class="st0" d="M10.6,12.4c0-0.1,0-0.1-0.1-0.1s-0.1,0-0.1,0.1"/>
	</g>
</g>
<g>
	<g>
		<circle class="st0" cx="11.2" cy="12.3" r="0"/>
	</g>
</g>
<g>
	<g>
		<circle class="st0" cx="7.6" cy="11.6" r="0.1"/>
	</g>
</g>
<g>
	<g>
		<circle class="st6" cx="9.6" cy="11.2" r="0"/>
	</g>
</g>
<g>
	<g>
		<circle class="st6" cx="10.3" cy="11.2" r="0"/>
	</g>
</g>
<g>
	<g>
		<g>
			<g>
				<g>
					<path class="st13" d="M2.9,7.8c0,0.3,0.2,0.5,0.5,0.5h4.6c0.3,0,0.5-0.2,0.5-0.5V4.5H2.9V7.8z"/>
				</g>
			</g>
		</g>
		<g>
			<g>
				<g>
					<path class="st7" d="M8.1,3.2H3.4c-0.3,0-0.5,0.2-0.5,0.5v0.7h5.7V3.7C8.6,3.4,8.4,3.2,8.1,3.2z"/>
				</g>
			</g>
		</g>
	</g>
	<g>
		<g>
			<g>
				<path class="st14" d="M4.4,7.6c-0.1,0-0.1-0.1-0.1-0.1V5.1C4.3,5.1,4.3,5,4.4,5c0.1,0,0.1,0.1,0.1,0.1v2.3
					C4.5,7.5,4.5,7.6,4.4,7.6z"/>
			</g>
		</g>
	</g>
	<g>
		<g>
			<g>
				<path class="st14" d="M7.1,7.6C7,7.6,7,7.5,7,7.4V5.1C7,5.1,7,5,7.1,5c0.1,0,0.1,0.1,0.1,0.1v2.3C7.2,7.5,7.2,7.6,7.1,7.6z"/>
			</g>
		</g>
	</g>
	<g>
		<g>
			<g>
				<g>
					<path class="st9" d="M4.4,3.7c-0.1,0-0.2-0.1-0.2-0.2V3c0-0.1,0.1-0.2,0.2-0.2S4.6,2.9,4.6,3v0.6C4.6,3.6,4.5,3.7,4.4,3.7z"/>
				</g>
			</g>
			<g>
				<g>
					<path class="st0" d="M4.4,2.8c0.1,0,0.1,0.1,0.1,0.1v0.6c0,0.1-0.1,0.1-0.1,0.1c-0.1,0-0.1-0.1-0.1-0.1V3
						C4.3,2.9,4.3,2.8,4.4,2.8 M4.4,2.7C4.3,2.7,4.2,2.8,4.2,3v0.6c0,0.1,0.1,0.2,0.2,0.2c0.1,0,0.2-0.1,0.2-0.2V3
						C4.6,2.8,4.5,2.7,4.4,2.7L4.4,2.7z"/>
				</g>
			</g>
		</g>
	</g>
	<g>
		<g>
			<g>
				<g>
					<path class="st9" d="M7.1,3.7C7,3.7,6.9,3.6,6.9,3.5V3c0-0.1,0.1-0.2,0.2-0.2c0.1,0,0.2,0.1,0.2,0.2v0.6
						C7.3,3.6,7.2,3.7,7.1,3.7z"/>
				</g>
			</g>
			<g>
				<g>
					<path class="st0" d="M7.1,2.8c0.1,0,0.1,0.1,0.1,0.1v0.6c0,0.1-0.1,0.1-0.1,0.1C7,3.7,7,3.6,7,3.5V3C7,2.9,7,2.8,7.1,2.8
						 M7.1,2.7C7,2.7,6.9,2.8,6.9,3v0.6c0,0.1,0.1,0.2,0.2,0.2s0.2-0.1,0.2-0.2V3C7.3,2.8,7.2,2.7,7.1,2.7L7.1,2.7z"/>
				</g>
			</g>
		</g>
	</g>
	<g>
		<g>
			<g>
				<path class="st14" d="M7.9,5.9H3.5c-0.1,0-0.1-0.1-0.1-0.1c0-0.1,0.1-0.1,0.1-0.1h4.4C8,5.6,8,5.7,8,5.8C8,5.8,8,5.9,7.9,5.9z"
					/>
			</g>
		</g>
	</g>
	<g>
		<g>
			<g>
				<path class="st14" d="M7.9,6.8H3.5c-0.1,0-0.1-0.1-0.1-0.1c0-0.1,0.1-0.1,0.1-0.1h4.4C8,6.6,8,6.6,8,6.7C8,6.8,8,6.8,7.9,6.8z"
					/>
			</g>
		</g>
	</g>
	<g>
		<g>
			<g>
				<path class="st14" d="M5.7,7.6c-0.1,0-0.1-0.1-0.1-0.1V5.1C5.6,5.1,5.7,5,5.7,5c0.1,0,0.1,0.1,0.1,0.1v2.3
					C5.9,7.5,5.8,7.6,5.7,7.6z"/>
			</g>
		</g>
	</g>
	<g>
		<g>
			<path class="st7" d="M8,7.6C7.9,7.6,7.9,7.6,8,7.6L7.5,7.2c0,0,0-0.1,0-0.1c0,0,0.1,0,0.1,0L8,7.5C8.1,7.5,8.1,7.6,8,7.6
				C8,7.6,8,7.6,8,7.6z"/>
		</g>
	</g>
	<g>
		<path class="st7" d="M7.5,7.6C7.5,7.6,7.5,7.6,7.5,7.6C7.4,7.6,7.4,7.5,7.5,7.5L7.9,7C7.9,7,8,7,8,7c0,0,0,0.1,0,0.1L7.5,7.6
			C7.6,7.6,7.5,7.6,7.5,7.6z"/>
	</g>
</g>
<g>
	<g>
		<path class="st1" d="M10.2,13.5c0.1,0,0.3-0.1,0.5-0.1c0.1,0,0.3,0,0.3,0.2l0.1,1.3L10.6,15l-0.5-1.3C10,13.6,10.1,13.5,10.2,13.5
			z"/>
	</g>
</g>
</svg>
